<svg width="320" height="70.89668785662109" viewBox="0 0 320 70.89668785662109" class="css-1j8o68f"><defs id="SvgjsDefs1081"><linearGradient id="SvgjsLinearGradient1086"><stop id="SvgjsStop1087" stop-color="#6d7cff" offset="0"></stop><stop id="SvgjsStop1088" stop-color="#ff51ff" offset="1"></stop></linearGradient></defs><g id="SvgjsG1082" featurekey="symbolFeature-0" transform="matrix(1.2320861663190363,0,0,1.2320861663190363,-10.476953045797053,-30.39609457111093)" fill="url(#SvgjsLinearGradient1086)"><title xmlns="http://www.w3.org/2000/svg">big4_outline</title><path xmlns="http://www.w3.org/2000/svg" d="M32.41,35.08L13.33,54.17,32.25,73.09a2,2,0,1,1-2.83,2.83L9.09,55.58a2,2,0,0,1,0-2.83l20.5-20.5A2,2,0,0,1,32.41,35.08ZM89.08,52.59L68.75,32.25a2,2,0,0,0-2.83,2.83L84.84,54,65.75,73.09a2,2,0,1,0,2.83,2.83l20.5-20.5A2,2,0,0,0,89.08,52.59ZM61.29,24.83a2,2,0,0,0-2.62,1.05L35.82,79.42A2,2,0,1,0,39.5,81L62.35,27.46A2,2,0,0,0,61.29,24.83Z"></path></g><g id="SvgjsG1083" featurekey="nameFeature-0" transform="matrix(1.516530122801545,0,0,1.516530122801545,116.42098943084765,-2.1046415272302497)" fill="#ffffff"><path d="M24 19.96 l1.4 0 l0 18.24 c0 1 -0.8 1.8 -1.8 1.8 l-16.28 0 c-2.76 0 -4.96 -2.24 -4.96 -5.04 l0 -15 l1.36 0 c0.24 0 0.44 0.2 0.44 0.44 l0 14.76 c0 1.72 1.4 3.16 3.16 3.16 l6.28 0 c-0.36 -0.12 -0.64 -0.56 -0.64 -1.12 l0 -17.24 l1.4 0 c0.24 0 0.4 0.2 0.4 0.44 l0 17.2 c0 0.4 0.32 0.72 0.72 0.72 l7.68 0 c0.24 0 0.4 -0.2 0.4 -0.44 l0 -17.48 c0 -0.24 0.2 -0.44 0.44 -0.44 z M41.120000000000005 40.28 l-6.04 0 c-2.76 0 -4.96 -2.24 -4.96 -5 l0 -10.52 c0 -2.76 2.2 -5.04 4.96 -5.04 l6.04 0 c2.72 0 4.92 2.28 4.92 5.04 l0 10.52 c0 2.76 -2.2 5 -4.92 5 z M41.120000000000005 21.4 l-6.04 0 c-1.76 0 -3.16 1.44 -3.16 3.2 l0 10.84 c0 1.76 1.4 3.16 3.16 3.16 l6.04 0 c1.72 0 3.12 -1.4 3.12 -3.16 l0 -10.84 c0 -1.76 -1.4 -3.2 -3.12 -3.2 z M61.800000000000004 40.28 l-6.04 0 c-2.76 0 -4.96 -2.24 -4.96 -5 l0 -10.52 c0 -2.76 2.2 -5.04 4.96 -5.04 l6.04 0 c2.72 0 4.92 2.28 4.92 5.04 l0 10.52 c0 2.76 -2.2 5 -4.92 5 z M61.800000000000004 21.4 l-6.04 0 c-1.76 0 -3.16 1.44 -3.16 3.2 l0 10.84 c0 1.76 1.4 3.16 3.16 3.16 l6.04 0 c1.72 0 3.12 -1.4 3.12 -3.16 l0 -10.84 c0 -1.76 -1.4 -3.2 -3.12 -3.2 z M85.56 10 l1.36 0 l0 29.56 c0 0.24 -0.2 0.44 -0.44 0.44 l-10.28 0 c-2.76 0 -4.96 -2.24 -4.96 -5 l0 -10 c0 -2.76 2.2 -5 4.96 -5 l7.8 0 c0.56 0 1.08 0.32 1.12 0.76 l0 -10.32 c0 -0.24 0.2 -0.44 0.44 -0.44 z M76.2 38.32 l8.92 0 l0 -15.96 c-0.04 -0.4 -0.32 -0.68 -0.68 -0.72 l-8.24 0 c-1.76 0 -3.16 1.44 -3.16 3.2 l0 10.32 c0 1.76 1.4 3.16 3.16 3.16 z M90.4 25.04 c0 -0.28 0.24 -0.52 0.52 -0.52 l9.56 0 l0 1.12 c0 0.32 -0.24 0.56 -0.52 0.56 l-9.56 0 l0 -1.16 z M104.92 33.92 l0 -23.92 l1.64 0 c0.24 0 0.44 0.2 0.44 0.44 l0 23.8 c0 2.32 1.88 4.2 4.2 4.2 l9.6 0 c2.32 0 4.2 -1.88 4.2 -4.2 l0 -23.8 c0 -0.24 0.2 -0.44 0.44 -0.44 l1.64 0 l0 23.92 c0 3.44 -2.8 6.28 -6.28 6.28 l-9.6 0 c-3.48 0 -6.28 -2.84 -6.28 -6.28 z M132.16 39.56 l0 -29.6 l1.64 0 c0.24 0 0.44 0.2 0.44 0.44 l0 29.6 l-1.64 0 c-0.24 0 -0.44 -0.2 -0.44 -0.44 z"></path></g></svg>